<svg width="155" height="56" viewBox="0 0 155 56" fill="none" xmlns="http://www.w3.org/2000/svg">
<g style="mix-blend-mode:overlay">
<path d="M4.87683 26.3922C4.87683 28.982 5.41496 30.2937 7.33206 30.2937H8.03836V31H0.975365V30.2937H1.64803C3.39696 30.2937 4.00236 29.0156 4.00236 26.4259V9.71013C3.7333 8.66749 2.9261 8.39843 1.24443 8.33116V7.6585H6.99572L15.8076 26.4931L23.8796 7.6585H29.2946V8.4657H29.0592C26.8394 8.4657 26.8057 8.93656 26.8057 10.8873V28.2084C26.8057 29.8901 27.0412 30.0246 29.2946 30.2937V31H20.6172V30.2937C23.0724 30.2264 23.3751 29.7892 23.3751 28.1748V10.82L14.8659 31H14.1596L4.87683 11.1227V26.3922ZM45.9733 23.6343C45.9733 28.343 43.1145 31.4036 39.0448 31.4036C34.9416 31.4036 32.15 28.343 32.15 23.6343C32.15 18.9256 34.9416 15.8987 39.0448 15.8987C43.1481 15.8987 45.9733 18.9256 45.9733 23.6343ZM39.0448 30.5964C41.5001 30.5964 43.1481 28.1075 43.1481 23.6343C43.1481 19.0938 41.5001 16.7059 39.0448 16.7059C36.5896 16.7059 34.9416 19.1611 34.9416 23.6343C34.9416 28.1748 36.5896 30.5964 39.0448 30.5964ZM62.133 23.6343C62.133 28.343 59.2742 31.4036 55.2046 31.4036C51.1013 31.4036 48.3097 28.343 48.3097 23.6343C48.3097 18.9256 51.1013 15.8987 55.2046 15.8987C59.3078 15.8987 62.133 18.9256 62.133 23.6343ZM55.2046 30.5964C57.6598 30.5964 59.3078 28.1075 59.3078 23.6343C59.3078 19.0938 57.6598 16.7059 55.2046 16.7059C52.7493 16.7059 51.1013 19.1611 51.1013 23.6343C51.1013 28.1748 52.7493 30.5964 55.2046 30.5964ZM64.7722 30.361C66.5548 30.2264 66.622 30.1255 66.622 28.2757V27.8721L66.5884 20.3046C66.5884 18.9593 66.3866 18.4884 65.0413 17.9166V17.5131C66.353 17.1095 67.5974 16.605 68.9091 15.8987H69.2118L69.1445 18.5557C70.658 16.7731 71.9697 15.865 73.9204 15.865C77.351 15.865 78.6291 18.2193 78.6291 22.7262V29.1165C78.6291 30.2264 78.9654 30.2601 80.5126 30.361V31H74.3577V30.361C75.9048 30.2601 76.1066 30.1592 76.1066 29.1165V21.919C76.1066 18.892 75.1649 17.3785 72.9114 17.3785C71.3307 17.3785 70.0863 18.1857 69.1445 19.7665V28.4102C69.1445 29.9237 69.2118 30.361 70.9607 30.361V31H64.7722V30.361ZM87.4728 28.4102C87.4728 29.9237 87.5737 30.361 89.289 30.361V31H83.0669V30.361C84.8158 30.2937 84.9167 29.7892 84.9167 27.8721V11.829C84.9167 10.5846 84.8158 10.0801 83.3696 9.44106V9.03746C84.7149 8.63386 85.993 8.09573 87.2374 7.42306H87.4728V28.4102ZM96.7046 15.8987V28.4102C96.7046 29.9237 96.8392 30.361 98.5545 30.361V31H92.1978V30.361C93.9131 30.2937 94.014 29.7892 94.014 27.8721V20.3046C94.014 18.9593 93.8122 18.4884 92.4668 17.9166V17.5131C93.8122 17.1095 95.0902 16.5713 96.3347 15.8987H96.7046ZM93.4422 9.17199C93.4422 8.163 94.1821 7.42306 95.1911 7.42306C96.1665 7.42306 96.9401 8.19663 96.9401 9.17199C96.9401 10.0801 96.1329 10.9209 95.1911 10.9209C94.2494 10.9209 93.4422 10.1137 93.4422 9.17199ZM105.026 25.4169C104.084 25.9214 103.613 26.5604 103.613 27.4685C103.613 29.1838 105.261 29.4529 108.221 29.4865L110.037 29.5201C113.872 29.5874 115.789 30.8655 115.789 33.5898C115.789 36.8186 112.997 38.4666 107.448 38.4666C103.042 38.4666 100.788 37.1213 100.788 34.9015C100.788 33.388 101.797 32.2108 103.849 31.2691C102.604 30.5291 101.999 29.6883 101.999 28.5784C101.999 27.2667 102.84 26.1904 104.454 25.0805C103.008 24.0715 102.268 22.6926 102.268 20.9773C102.268 18.0176 104.421 15.8987 107.515 15.8987C109.163 15.8987 110.441 16.2686 111.82 17.2776C112.694 16.5377 113.569 16.1677 114.242 16.1677C115.15 16.1677 115.688 16.6722 115.688 17.4458C115.688 17.9503 115.284 18.3875 114.746 18.3875C114.006 18.3875 113.569 17.5467 112.829 17.5467C112.593 17.5467 112.392 17.5803 112.156 17.6812C112.829 18.7238 113.165 19.6992 113.165 20.8427C113.165 23.8697 110.878 25.8205 107.683 25.8205C106.809 25.8205 105.934 25.6523 105.026 25.4169ZM107.683 25.0133C109.466 25.0133 110.575 23.4998 110.575 20.8427C110.575 18.1857 109.466 16.6386 107.683 16.6386C105.867 16.6386 104.757 18.1857 104.757 20.8427C104.757 23.4998 105.867 25.0133 107.683 25.0133ZM104.421 31.639C103.412 32.2444 102.84 33.2198 102.84 34.4306C102.84 36.5831 104.454 37.693 107.616 37.693C111.887 37.693 114.04 36.6504 114.04 34.5651C114.04 32.7153 112.694 32.0763 109.97 32.0426H107.145C106.338 32.0426 105.463 32.0426 104.421 31.639ZM117.124 31V30.361C118.907 30.2937 118.974 29.7219 118.974 27.8721V11.829C118.974 10.4837 118.772 10.0128 117.427 9.44106V9.03746C118.772 8.63386 120.05 8.09573 121.295 7.42306H121.496V18.5557C122.976 16.7395 124.389 15.865 126.272 15.865C129.703 15.865 131.015 18.253 131.015 22.7262V28.6793C131.015 30.1928 131.048 30.2601 132.864 30.361V31H126.743V30.361C128.458 30.3273 128.492 29.7892 128.492 28.2757V22.6253C128.492 19.1947 127.92 17.3785 125.297 17.3785C123.716 17.3785 122.438 18.1857 121.496 19.7665V28.4102C121.496 29.9237 121.631 30.361 123.346 30.361V31H117.124ZM137.541 17.9839H135.658V17.6476C137.172 16.5377 138.55 15.2933 139.829 13.847H140.098V16.3023H145.042L144.167 17.9839H140.098V26.5604C140.098 28.5448 140.568 29.6883 142.385 29.6883C143.091 29.6883 144.066 29.2847 145.042 28.3766L145.344 28.7466C144.235 30.4282 142.687 31.3363 140.972 31.3363C137.777 31.3363 137.541 29.1838 137.541 25.8541V17.9839Z" fill="white"/>
<path d="M52.8669 44.4562C53.0463 44.4674 53.2145 44.4787 53.3826 44.4787C54.8849 44.4787 55.5688 43.8957 55.5688 42.5391C55.5688 41.3508 54.8737 40.6893 53.6293 40.6893C53.0575 40.6893 52.8669 40.9135 52.8669 41.4405V44.4562ZM56.1293 48.2344L55.636 47.3039C54.7167 45.5549 53.8535 44.6805 53.0239 44.6805C52.9678 44.6805 52.923 44.6805 52.8669 44.6917V47.2926C52.8669 47.9093 53.1248 47.9653 53.8423 47.9765V48.2344H50.8938V47.9653H50.9722C51.7122 47.9653 51.7234 47.7971 51.7234 47.1469V41.5301C51.7234 40.8799 51.7122 40.7229 50.9722 40.7229H50.8938V40.4539H51.4992C51.8691 40.4539 52.3736 40.4427 53.0239 40.4427C55.4903 40.4427 56.7572 40.8799 56.7572 42.584C56.7572 43.6378 56.1742 44.3105 55.0194 44.5908C55.8939 45.3643 56.3311 46.3845 56.8805 47.3151C57.172 47.8196 57.4298 47.9877 58.0128 47.9877V48.2344H56.1293ZM66.3321 48.3689C64.1348 48.3689 62.5204 46.7097 62.5204 44.3217C62.5204 41.9786 64.0787 40.3193 66.3097 40.3193C68.5407 40.3193 70.1327 41.9337 70.1327 44.3665C70.1327 46.7433 68.5744 48.3689 66.3321 48.3689ZM63.7087 44.4226C63.7087 46.6648 64.8523 48.0998 66.3209 48.0998C67.8344 48.0998 68.9555 46.6872 68.9555 44.3553C68.9555 41.9786 67.8568 40.566 66.3546 40.566C64.8411 40.566 63.7087 42.0234 63.7087 44.4226ZM79.0418 48.3689C76.8445 48.3689 75.2301 46.7097 75.2301 44.3217C75.2301 41.9786 76.7884 40.3193 79.0194 40.3193C81.2504 40.3193 82.8424 41.9337 82.8424 44.3665C82.8424 46.7433 81.2841 48.3689 79.0418 48.3689ZM76.4184 44.4226C76.4184 46.6648 77.562 48.0998 79.0306 48.0998C80.5441 48.0998 81.6652 46.6872 81.6652 44.3553C81.6652 41.9786 80.5666 40.566 79.0643 40.566C77.5508 40.566 76.4184 42.0234 76.4184 44.4226ZM89.0833 46.6985C89.0833 47.5617 89.2627 47.9989 89.9017 47.9989H90.1371V48.2344H87.7828V47.9989H88.007C88.59 47.9989 88.7918 47.5729 88.7918 46.7097V41.1378C88.7021 40.7902 88.4331 40.7005 87.8725 40.6781V40.4539H89.7896L92.7269 46.7321L95.4176 40.4539H97.2226V40.7229H97.1441C96.4041 40.7229 96.3929 40.8799 96.3929 41.5301V47.3039C96.3929 47.8644 96.4714 47.9093 97.2226 47.9989V48.2344H94.3301V47.9989C95.1485 47.9765 95.2494 47.8308 95.2494 47.2926V41.5077L92.413 48.2344H92.1776L89.0833 41.6086V46.6985Z" fill="white"/>
</g>
</svg>
